<svg xmlns="http://www.w3.org/2000/svg" width="628" height="450" viewBox="0 0 628 450">
    <g fill="none" fill-rule="evenodd">
        <g>
            <path fill="#E44023" d="M287.023.837c11.018.592 21.708 10.25 23.458 20.09 1.214 6.834 1.625 13.66 2.183 20.515.349 4.289.788 8.577 1.123 12.866.16 2.085 1.506 1.464 2.678 1.297 12.44-1.848 24.873-3.703 37.3-5.55 7.538-1.13 15.076-2.253 22.614-3.383.007 61.31.014 122.619.014 183.921 0 .62-.049 1.234-.07 1.855-8.967.133-17.935.377-26.896.335-2.747-.014-3.598.634-3.59 3.535.097 51.129.069 102.264.069 153.392 0 .516.042 1.032 0 1.548-.112 1.339.586 1.813 1.827 1.89 9.553.593 19.058 1.827 28.64 2.036.013 17.921.02 35.843.027 53.764-8.354-.286-16.59-1.736-24.88-2.608-15.28-1.604-30.509-3.542-45.766-5.341-18.828-2.225-37.656-4.47-56.491-6.66-18.326-2.14-36.666-4.198-54.992-6.325-19.044-2.224-38.074-4.511-57.118-6.736-14.84-1.73-29.692-3.375-44.538-5.09-21.715-2.49-43.423-4.965-65.117-7.545-4.603-.544-9.135-1.625-13.361-3.648-8.954-4.281-13.026-11.882-13.438-21.338-.453-10.606-.23-21.24-.25-31.868-.161-73.352-.287-146.711-.454-220.063-.007-6.067 1.158-11.848 3.626-17.406 5.056-11.394 14.77-15.87 26.213-17.51 26.415-3.772 52.864-7.322 79.293-11.024 22.14-3.11 44.26-6.36 66.407-9.414 2.28-.321 2.74-1.095 2.817-3.264.44-12.83.565-25.717 3.5-38.311 2.734-11.75 10.607-18.591 21.75-22.294 18.09-6.025 36.91-8.375 55.655-10.92C268.432.335 277.77.342 287.023.837zM376.38 46.67c5.265.376 10.111 2.44 15.111 3.828 25.885 7.183 51.7 14.61 77.578 21.813 24.197 6.736 48.395 13.437 72.669 19.888 20.292 5.397 40.64 10.564 61.037 15.536 14.498 3.529 23.654 14.637 23.654 29.518V379.57c0 12.776-6.925 21.171-19.477 23.675-43.416 8.654-86.838 17.308-130.261 25.954-27.865 5.558-55.738 11.144-83.617 16.66-5.544 1.094-11.01 2.615-16.673 3.089-.007-17.922-.014-35.843-.028-53.764 0-14.742.007-29.497 0-44.239l-.049-118.497c.021-.614.07-1.235.07-1.855 0-61.303-.007-122.612-.014-183.921zM240.804 17.677c-11.436 1.778-22.628 4.428-33.639 7.936-7.51 2.392-12.078 7.315-12.838 15.292-2.72 28.472-4.358 56.958-1.694 85.549.592 6.485 2.538 12.252 6.917 17.14 6.743 7.524 13.473 15.07 20.202 22.6 9.386 10.51 13.793 22.782 13.138 36.862-.53 11.54-1.444 23.074-1.5 34.615-.195 37.754-.09 75.507-.076 113.26.007 8.564.062 17.127.18 25.683.057 4.086 2.128 6.973 5.28 7.315 4.393.481 8.814.872 13.235 1.081 4.853.223 7.44-2.022 7.622-6.855.244-6.701.167-13.402.216-20.104.049-5.571-1.227-11.59.474-16.582 1.743-5.098 6.478-9.142 9.756-13.759 1.464-2.07 2.134-2.412 3.5.182 10.39 19.804 20.934 39.524 31.366 59.308.851 1.617 1.758 2.405 3.703 2.53 6.374.391 12.726 1.207 19.107 1.556 3.654.195 7.273 1.178 11.018.697-.014-1.36-.81-2.231-1.34-3.186-15.494-27.943-30.981-55.892-46.574-83.785-1.018-1.827-.927-2.984.216-4.672 14.324-21.296 28.577-42.642 42.823-64 .649-.963 1.716-1.786 1.604-2.895-10.195 0-20.292.035-30.39-.028-1.561-.007-2.098.998-2.782 2.03-6.094 9.183-12.203 18.374-18.305 27.558-7.81 11.743-15.613 23.493-23.423 35.236-.237-.042-.467-.09-.697-.132 0-1.11.007-2.218 0-3.327-.189-30.829.92-61.671-2.127-92.438-1.186-12 2.308-22.907 8.933-32.76 6.52-9.686 14.93-17.873 22.175-26.994 4.742-5.962 10.209-11.576 11.52-19.448 1.004-5.99 1.652-12.071 1.96-18.138 1.324-25.801 0-51.533-2.567-77.215-.934-9.275-5.446-13.159-14.846-13.403-14.17-.356-28.165 1.109-42.147 3.291zm142.57 215.244c-.181.572.328 1.178.607 1.813 14.602 32.51 29.19 65.019 43.827 97.522.865 1.917 1.283 3.828 1.276 5.948-.063 15.885.014 31.763-.084 47.648-.014 2.309.67 2.769 2.81 2.406 7.413-1.262 14.826-2.51 22.28-3.486 2.253-.293 2.86-.984 2.845-3.222-.097-15.362-.048-30.725-.055-46.094 0-1.339.09-2.608.62-3.912 10.07-24.692 20.09-49.406 30.111-74.119 3.006-7.42 5.976-14.853 9.358-23.277-9.344 0-18.068.021-26.784-.014-1.639-.007-1.73 1.311-2.078 2.267-5.858 15.836-11.66 31.693-17.49 47.544-2.314 6.303-4.671 12.593-7.28 19.58-.836-2.043-1.394-3.333-1.896-4.644-8.068-21.17-16.15-42.328-24.149-63.526-.662-1.744-1.492-2.378-3.333-2.33-3.717.091-7.427-.09-11.143-.097-6.45-.028-12.908-.007-19.442-.007zm-221.633 1.66c-13.417 1.068-23.347 8.202-31.213 18.473-11.694 15.279-15.92 32.99-16.17 51.882-.063 7.991.878 15.864 2.81 23.597 3.898 15.6 10.55 29.686 22.92 40.501 14.059 12.28 32.475 13.954 47.461 4.317 8.64-5.558 15.042-13.173 19.609-22.252 12.057-24.03 12.894-48.876 4.651-74.168-4.184-12.859-10.843-24.24-21.47-32.977-8.313-6.855-17.755-10.23-28.598-9.372zm-72.418 5c-8.242 14.526-16.645 28.954-25.006 43.403-1.897 3.284-3.863 6.534-5.795 9.797-.174-.077-.349-.153-.516-.23v-52.039c-.013-3.824-.245-3.822-4.651-3.782-4.024.035-8.054.258-12.071.076-2.733-.125-3.591.593-3.577 3.515.097 41.373.063 82.745.063 124.118 0 .516.062 1.039 0 1.548-.196 1.436.348 1.96 1.84 2.05 4.84.3 9.672.704 14.491 1.185 3.891.39 3.919 1.235 3.912-3.668-.028-10.836-.02-21.666 0-32.502 0-1.213-.202-2.448.565-3.591 2.831-4.163 5.62-8.361 8.389-12.503.997.39 1.13 1.15 1.422 1.785 7.043 15.132 14.344 30.152 20.976 45.466 2.531 5.85 5.349 9.476 12.343 9.114 5.383-.28 10.822.62 16.631 1.025-.683-1.555-1.144-2.685-1.68-3.78-11.59-23.807-23.173-47.62-34.818-71.4-.858-1.757-.893-3.13.118-4.86 10.69-18.221 21.304-36.491 31.931-54.754.642-1.095 1.618-2.064 1.653-3.466-6.75 0-13.347.188-19.937-.077-3.096-.125-4.784.928-6.283 3.57zm415.421-1.988c.091 13.619.05 27.23.05 43.234.215 11.018-.559 24.442.439 37.824.92 12.3 3.172 24.316 9.26 35.299 7.113 12.844 19.414 19.441 32.684 17.572 14.156-1.987 24.267-9.658 30.968-22.028 7.253-13.375 9.672-27.984 9.868-42.935.293-22.58.062-45.173.153-67.76.014-1.98-.62-2.398-2.427-2.405-5.048-.014-10.11-.126-15.153-.384-1.966-.098-2.42.544-2.398 2.413.09 8.563.132 17.126.02 25.69-.216 16.178.67 32.383-.536 48.548-.586 7.76-2.009 15.334-6.214 22.091-3.64 5.865-8.723 9.407-15.836 8.877-6.694-.488-10.237-5.132-12.79-10.739-4.065-8.96-4.532-18.57-4.588-28.165-.118-22.168-.062-44.35.014-66.525.007-2.239-.467-3.006-2.859-2.985-5.976.063-11.966-.105-17.935-.39-2.252-.105-2.733.662-2.72 2.768z" transform="translate(0 .148)"/>
            <path fill="#AD2217" d="M504.793 280.827c.216 11.018-.558 24.442.44 37.824.92 12.3 3.172 24.316 9.26 35.299 7.113 12.844 19.414 19.441 32.684 17.572 14.156-1.987 24.267-9.658 30.968-22.028 7.253-13.375 9.672-27.984 9.868-42.935.293-22.58.062-45.173.153-67.76.014-1.98-.62-2.398-2.427-2.405-5.048-.014-10.11-.126-15.153-.384-1.966-.098-2.42.544-2.398 2.413.09 8.563.132 17.126.02 25.69-.216 16.178.67 32.383-.536 48.548-.586 7.76-2.009 15.334-6.214 22.091-3.64 5.865-8.723 9.407-15.836 8.877-6.694-.488-10.237-5.132-12.79-10.739-4.065-8.96-4.532-18.57-4.588-28.165-.118-22.168-.062-44.35.014-66.525.007-2.239-.467-3.006-2.859-2.985-5.976.063-11.966-.105-17.935-.39-2.252-.105-2.733.662-2.72 2.768.091 13.619.05 27.23.05 43.234m-121.42-47.906c-.181.572.328 1.178.607 1.813 14.602 32.51 29.19 65.019 43.827 97.522.865 1.917 1.283 3.828 1.276 5.948-.063 15.885.014 31.763-.084 47.648-.014 2.309.67 2.769 2.81 2.406 7.413-1.262 14.826-2.51 22.28-3.486 2.253-.293 2.86-.984 2.845-3.222-.097-15.362-.048-30.725-.055-46.094 0-1.339.09-2.608.62-3.912 10.07-24.692 20.09-49.406 30.111-74.119 3.006-7.42 5.976-14.853 9.358-23.277-9.344 0-18.068.021-26.784-.014-1.639-.007-1.73 1.311-2.078 2.267-5.858 15.836-11.66 31.693-17.49 47.544-2.314 6.303-4.671 12.593-7.28 19.58-.836-2.043-1.394-3.333-1.896-4.644-8.068-21.17-16.15-42.328-24.149-63.526-.662-1.744-1.492-2.378-3.333-2.33-3.717.091-7.427-.09-11.143-.097-6.45-.028-12.908-.007-19.442-.007m-6.973 216.026c-.007-17.922-.014-35.843-.028-53.764 0-14.742.007-29.497 0-44.239-.014-39.497-.035-79-.049-118.497.021-.614.07-1.235.07-1.855 0-61.303-.007-122.612-.014-183.921 5.265.376 10.111 2.44 15.111 3.828 25.885 7.183 51.7 14.61 77.578 21.813 24.197 6.736 48.395 13.437 72.669 19.888 20.292 5.397 40.64 10.564 61.037 15.536 14.498 3.529 23.654 14.637 23.654 29.518V379.57c0 12.776-6.925 21.171-19.477 23.675-43.416 8.654-86.838 17.308-130.261 25.954-27.865 5.558-55.738 11.144-83.617 16.66-5.544 1.094-11.01 2.615-16.673 3.089" transform="translate(0 .148)"/>
        </g>
        <path fill="#FEFEFE" d="M223.642 78.034h-.175c0-11.129.007-22.251-.007-33.38-.007-2.77-.732-5.154-3.78-5.99-2.858-.782-5.738.571-7.335 3.277-.879 1.492-.983 3.11-.983 4.77l-.042 63.986c0 .614-.021 1.242.028 1.855.202 2.566 1.206 4.624 3.856 5.377 2.615.746 4.867.02 6.715-1.988 1.5-1.638 1.75-3.626 1.743-5.753-.034-10.718-.02-21.436-.02-32.154m54.858-6.91h.098c0-11.436.028-22.88-.014-34.316-.02-4.93-4.058-7.42-8.521-5.285-3.131 1.499-4.359 4.177-4.372 7.552-.035 8.242-.133 16.484-.168 24.727-.056 14.54-.146 29.072-.104 43.604.02 5.056 4.672 7.594 9.149 5.188 2.859-1.541 3.946-4.01 3.94-7.148-.021-11.443-.008-22.886-.008-34.322m-27.949 6.241h-.07c0-10.606 0-21.213-.006-31.82 0-2.475.132-4.957-.084-7.412-.328-3.605-3.382-5.537-6.883-4.574-3.57.976-5.292 3.55-5.313 8.012-.119 24.518-.216 49.03-.328 73.54 0 .823-.056 1.653.035 2.469.467 4.693 5.083 7.001 9.128 4.56 2.657-1.603 3.556-4.05 3.542-7.063-.048-12.573-.02-25.14-.02-37.712m8.054 221.026c7.803-11.743 15.606-23.493 23.416-35.236 6.102-9.191 12.21-18.375 18.305-27.566.683-1.032 1.22-2.029 2.782-2.022 10.098.056 20.195.028 30.39.028.118 1.109-.955 1.925-1.604 2.894-14.246 21.359-28.493 42.704-42.823 64-1.137 1.688-1.234 2.846-.21 4.673 15.586 27.893 31.08 55.842 46.569 83.777.53.962 1.331 1.834 1.345 3.187-3.744.488-7.37-.495-11.017-.697-6.381-.342-12.74-1.158-19.114-1.555-1.946-.119-2.852-.907-3.703-2.525-10.432-19.783-20.976-39.51-31.366-59.308-1.36-2.6-2.036-2.259-3.5-.188-3.278 4.616-8.006 8.66-9.75 13.758-1.708 5-.432 11.011-.48 16.583-.05 6.701.027 13.41-.217 20.11-.174 4.826-2.761 7.079-7.621 6.849-4.421-.203-8.836-.593-13.236-1.074-3.145-.349-5.223-3.236-5.279-7.315-.118-8.563-.167-17.127-.174-25.683-.014-37.753-.125-75.507.07-113.26.056-11.541.97-23.082 1.5-34.616.655-14.079-3.753-26.359-13.139-36.86-6.722-7.539-13.451-15.077-20.201-22.601-4.38-4.888-6.318-10.655-6.918-17.147-2.664-28.584-1.025-57.077 1.695-85.542.76-7.984 5.334-12.9 12.845-15.3 11.003-3.507 22.196-6.15 33.632-7.935 13.981-2.183 27.984-3.647 42.146-3.284 9.407.237 13.912 4.128 14.847 13.402 2.566 25.683 3.89 51.407 2.566 77.216-.307 6.06-.956 12.14-1.953 18.13-1.318 7.88-6.785 13.487-11.527 19.456-7.245 9.12-15.655 17.3-22.168 26.986-6.631 9.86-10.125 20.76-8.94 32.768 3.048 30.766 1.946 61.61 2.127 92.438.007 1.102 0 2.21 0 3.326.23.042.46.084.705.133M191.546 307.248c-.25-11.339-1.994-22.664-8.905-32.53-4.323-6.172-9.958-10.433-17.851-10.726-10.481-.383-16.848 5.683-21.318 14.198-5.843 11.15-6.75 23.228-5.662 35.515.732 8.382 2.79 16.457 7.266 23.716 3.556 5.774 8.159 10.418 14.993 12.099 9.958 2.454 18.73-1.855 24.42-11.848 5.314-9.323 6.869-19.525 7.057-30.424m-77.187-2.17c.25-18.89 4.477-36.602 16.17-51.873 7.867-10.28 17.797-17.413 31.213-18.473 10.837-.857 20.286 2.518 28.598 9.365 10.627 8.745 17.287 20.125 21.47 32.977 8.243 25.3 7.406 50.145-4.658 74.168-4.56 9.086-10.962 16.701-19.602 22.252-14.992 9.644-33.402 7.97-47.46-4.316-12.37-10.81-19.023-24.895-22.921-40.494-1.932-7.734-2.873-15.607-2.81-23.605"/>
        <path fill="#FEFEFE" d="M66.967 317.105c-2.769 4.142-5.558 8.34-8.39 12.503-.766 1.144-.564 2.378-.564 3.591-.02 10.837-.028 21.667 0 32.503.007 4.902-.02 4.059-3.912 3.668-4.819-.481-9.651-.886-14.49-1.185-1.493-.091-2.037-.614-1.841-2.05.062-.51 0-1.033 0-1.549 0-41.372.034-82.745-.063-124.118-.014-2.921.844-3.64 3.577-3.514 4.017.181 8.047-.042 12.07-.077 4.652-.042 4.652-.042 4.652 4.456V292.7c.167.076.342.153.516.23 1.932-3.264 3.898-6.513 5.795-9.798 8.36-14.449 16.764-28.876 25.006-43.402 1.5-2.643 3.187-3.696 6.283-3.57 6.59.265 13.187.077 19.937.077-.035 1.401-1.011 2.37-1.653 3.465-10.627 18.263-21.24 36.534-31.93 54.755-1.012 1.73-.977 3.103-.12 4.86 11.646 23.78 23.229 47.593 34.818 71.4.537 1.095.998 2.224 1.681 3.78-5.809-.405-11.248-1.305-16.631-1.026-6.994.363-9.812-3.263-12.343-9.114-6.632-15.313-13.933-30.334-20.976-45.466-.293-.634-.425-1.394-1.422-1.785M376.325 232.594c.014 39.497.035 79 .05 118.498.006 14.741 0 29.497 0 44.238-9.582-.209-19.087-1.443-28.647-2.036-1.234-.077-1.932-.55-1.82-1.89.042-.516 0-1.032 0-1.548 0-51.128.028-102.263-.07-153.392-.007-2.9.844-3.549 3.591-3.535 8.961.042 17.929-.202 26.896-.335M383.373 233.068c6.534 0 12.992-.014 19.442.007 3.717.007 7.434.188 11.143.097 1.841-.049 2.678.586 3.334 2.336 7.998 21.192 16.08 42.35 24.148 63.52.502 1.311 1.06 2.601 1.904 4.644 2.6-6.987 4.965-13.277 7.28-19.58 5.823-15.85 11.631-31.708 17.482-47.545.349-.955.44-2.273 2.078-2.266 8.717.035 17.44.014 26.785.014-3.383 8.424-6.353 15.857-9.359 23.277-10.02 24.72-20.04 49.427-30.11 74.126-.53 1.297-.621 2.566-.621 3.905.007 15.37-.042 30.732.056 46.094.014 2.238-.593 2.928-2.845 3.221-7.455.984-14.867 2.225-22.28 3.487-2.14.37-2.824-.098-2.81-2.406.097-15.885.02-31.763.083-47.648.007-2.12-.411-4.03-1.276-5.949-14.637-32.502-29.225-65.012-43.827-97.521-.279-.635-.788-1.235-.607-1.813M504.793 280.975c0-16.004.042-29.616-.049-43.234-.013-2.106.468-2.873 2.72-2.769 5.97.286 11.96.453 17.935.39 2.392-.02 2.866.747 2.86 2.985-.077 22.175-.133 44.357-.015 66.526.056 9.595.523 19.204 4.589 28.165 2.552 5.606 6.095 10.25 12.789 10.739 7.113.53 12.196-3.013 15.836-8.877 4.205-6.758 5.628-14.33 6.214-22.092 1.206-16.164.32-32.37.536-48.548.112-8.563.07-17.126-.02-25.69-.021-1.868.432-2.51 2.398-2.412 5.042.258 10.105.37 15.153.383 1.806.007 2.441.425 2.427 2.406-.09 22.586.14 45.18-.153 67.76-.196 14.95-2.615 29.56-9.868 42.934-6.7 12.37-16.812 20.041-30.968 22.029-13.27 1.869-25.571-4.728-32.684-17.573-6.088-10.983-8.34-22.998-9.26-35.299-.998-13.382-.224-26.805-.44-37.823"/>
        <path fill="#E44023" d="M250.554 77.367c0 12.573-.028 25.139.021 37.705.014 3.012-.885 5.467-3.55 7.07-4.037 2.441-8.653.133-9.12-4.56-.09-.823-.035-1.646-.035-2.468.104-24.519.209-49.03.328-73.54.014-4.464 1.743-7.037 5.306-8.02 3.5-.956 6.562.976 6.89 4.581.216 2.455.077 4.937.077 7.413.007 10.606.007 21.213.007 31.82h.076zM278.502 71.122c0 11.444-.014 22.88.007 34.323.007 3.145-1.081 5.614-3.94 7.148-4.477 2.406-9.128-.133-9.149-5.188-.042-14.533.049-29.065.105-43.597.034-8.243.132-16.492.167-24.735.014-3.375 1.241-6.046 4.372-7.552 4.463-2.134 8.5.363 8.522 5.286.041 11.436.014 22.88.014 34.315h-.098zM223.642 78.034c0 10.718-.014 21.436.02 32.154.007 2.127-.244 4.115-1.743 5.753-1.848 2.009-4.1 2.734-6.715 1.988-2.65-.753-3.654-2.81-3.856-5.377-.05-.613-.028-1.241-.028-1.855l.042-63.987c0-1.66.104-3.277.983-4.77 1.597-2.705 4.477-4.058 7.336-3.277 3.047.837 3.772 3.222 3.78 5.99.013 11.13.006 22.252.006 33.381h.175zM191.546 307.248c-.188 10.899-1.743 21.1-7.057 30.424-5.69 9.993-14.462 14.302-24.42 11.848-6.834-1.68-11.437-6.325-14.993-12.099-4.477-7.26-6.534-15.334-7.266-23.716-1.088-12.287-.181-24.365 5.662-35.515 4.47-8.515 10.837-14.581 21.318-14.198 7.893.293 13.528 4.554 17.851 10.725 6.91 9.867 8.654 21.192 8.905 32.53"/>
    </g>
</svg>
